# xmcd CD database file
#
# Track frame offsets:
#	150
#	12352
#	28746
#	42224
#	55288
#	69769
#	83692
#	95651
#	113137
#	121971
#	137222
#	146316
#	158315
#	168571
#	182049
#	193814
#
# Disc length: 2698 seconds
#
# Revision: 1
# Processed by: cddbd v1.5.2PL0 Copyright (c) Steve Scherf et al.
# Submitted via: CDex 1.51
#
DISCID=d10a8810
DTITLE=Vern Williams Band - Traditional Bluegrass
DYEAR=2004
DGENRE=Bluegrass
TTITLE0=Roll On Buddy
TTITLE1=Close By
TTITLE2=Montana Cowboy
TTITLE3=I'm On My Way Back To The Old Home Place
TTITLE4=Happy I'll Be
TTITLE5=Live and Let Live
TTITLE6=Bald Knob, Arkansas
TTITLE7=When The Golden Leaves Begin To Fall
TTITLE8=I Hear A Choo Choo Coming
TTITLE9=Can't You Hear Me Calling
TTITLE10=Traveling The Highway Home
TTITLE11=Love Me Darling Just Tonight
TTITLE12=In Despair
TTITLE13=I'm Going Back To Old Kentucky
TTITLE14=Darling Nellie Across The Sea
TTITLE15=Pig In A Pen
EXTD=YEAR: 2004
EXTT0=
EXTT1=
EXTT2=
EXTT3=
EXTT4=
EXTT5=
EXTT6=
EXTT7=
EXTT8=
EXTT9=
EXTT10=
EXTT11=
EXTT12=
EXTT13=
EXTT14=
EXTT15=
PLAYORDER=
